{
  "accessors": [
    {
      "bufferView": 2,
      "componentType": 5126,
      "count": 454,
      "max": [
        1803.512939453125,
        2033.1400146484375,
        3034.55126953125
      ],
      "min": [
        -1938.4549560546875,
        -1706.387939453125,
        0.0
      ],
      "type": "VEC3"
    },
    {
      "bufferView": 2,
      "byteOffset": 5448,
      "componentType": 5126,
      "count": 454,
      "max": [
        0.9956620931625366,
        0.9937294125556946,
        1.0
      ],
      "min": [
        -0.9954757690429688,
        -0.9999940991401672,
        -0.9556156396865845
      ],
      "type": "VEC3"
    },
    {
      "bufferView": 1,
      "componentType": 5126,
      "count": 454,
      "max": [
        0.6694098114967346,
        0.9945436120033264
      ],
      "min": [
        0.05552070960402489,
        -2.958183004109216e-11
      ],
      "type": "VEC2"
    },
    {
      "bufferView": 0,
      "componentType": 5125,
      "count": 1317,
      "type": "SCALAR"
    },
    {
      "bufferView": 2,
      "byteOffset": 10896,
      "componentType": 5126,
      "count": 848,
      "max": [
        1803.512939453125,
        2033.1400146484375,
        3034.55126953125
      ],
      "min": [
        -1938.4549560546875,
        -1706.387939453125,
        0.0
      ],
      "type": "VEC3"
    },
    {
      "bufferView": 2,
      "byteOffset": 21072,
      "componentType": 5126,
      "count": 848,
      "max": [
        0.9954757690429688,
        0.9999940991401672,
        1.0
      ],
      "min": [
        -0.9956620931625366,
        -0.9967636466026306,
        -1.0
      ],
      "type": "VEC3"
    },
    {
      "bufferView": 0,
      "byteOffset": 5268,
      "componentType": 5125,
      "count": 2505,
      "type": "SCALAR"
    },
    {
      "bufferView": 2,
      "byteOffset": 31248,
      "componentType": 5126,
      "count": 39,
      "max": [
        1803.512939453125,
        2033.1400146484375,
        471.8484191894531
      ],
      "min": [
        -1938.4549560546875,
        -1706.387939453125,
        219.14390563964844
      ],
      "type": "VEC3"
    },
    {
      "bufferView": 2,
      "byteOffset": 31716,
      "componentType": 5126,
      "count": 39,
      "max": [
        4.0186811144034317e-16,
        1.8675949675639458e-11,
        1.0
      ],
      "min": [
        -2.461411933649127e-12,
        -4.136196877318717e-16,
        1.0
      ],
      "type": "VEC3"
    },
    {
      "bufferView": 1,
      "byteOffset": 3632,
      "componentType": 5126,
      "count": 39,
      "max": [
        0.7686821222305298,
        0.9565073847770691
      ],
      "min": [
        0.21202519536018372,
        0.11727059632539749
      ],
      "type": "VEC2"
    },
    {
      "bufferView": 0,
      "byteOffset": 15288,
      "componentType": 5125,
      "count": 111,
      "type": "SCALAR"
    },
    {
      "bufferView": 2,
      "byteOffset": 32184,
      "componentType": 5126,
      "count": 30,
      "max": [
        326.1712646484375,
        670.7005615234375,
        2950.077880859375
      ],
      "min": [
        -567.5813598632813,
        -229.48509216308594,
        593.7283325195313
      ],
      "type": "VEC3"
    },
    {
      "bufferView": 2,
      "byteOffset": 32544,
      "componentType": 5126,
      "count": 30,
      "max": [
        3.5795534358840086e-07,
        5.1552678277536415e-15,
        1.0
      ],
      "min": [
        -3.8269613477812884e-15,
        -5.536268758987717e-07,
        -1.0
      ],
      "type": "VEC3"
    },
    {
      "bufferView": 1,
      "byteOffset": 3944,
      "componentType": 5126,
      "count": 30,
      "max": [
        6.26343297958374,
        6.607694149017334
      ],
      "min": [
        -6.2043561935424805,
        0.4203338027000427
      ],
      "type": "VEC2"
    },
    {
      "bufferView": 0,
      "byteOffset": 15732,
      "componentType": 5125,
      "count": 66,
      "type": "SCALAR"
    },
    {
      "bufferView": 2,
      "byteOffset": 32904,
      "componentType": 5126,
      "count": 8,
      "max": [
        277.1040344238281,
        573.5440063476563,
        1219.3765869140625
      ],
      "min": [
        -180.93919372558594,
        -180.41798400878906,
        789.5540771484375
      ],
      "type": "VEC3"
    },
    {
      "bufferView": 2,
      "byteOffset": 33000,
      "componentType": 5126,
      "count": 8,
      "max": [
        0.8399566411972046,
        0.5426536798477173,
        1.3583051775033237e-17
      ],
      "min": [
        0.5426536798477173,
        -0.8399566411972046,
        7.392683740387747e-19
      ],
      "type": "VEC3"
    },
    {
      "bufferView": 1,
      "byteOffset": 4184,
      "componentType": 5126,
      "count": 8,
      "max": [
        1.0,
        1.0
      ],
      "min": [
        0.0,
        0.0
      ],
      "type": "VEC2"
    },
    {
      "bufferView": 0,
      "byteOffset": 15996,
      "componentType": 5125,
      "count": 12,
      "type": "SCALAR"
    },
    {
      "bufferView": 2,
      "byteOffset": 33096,
      "componentType": 5126,
      "count": 8,
      "max": [
        -18.81467628479004,
        573.5440063476563,
        1219.3765869140625
      ],
      "min": [
        -476.8580017089844,
        -180.41798400878906,
        789.5540771484375
      ],
      "type": "VEC3"
    },
    {
      "bufferView": 2,
      "byteOffset": 33192,
      "componentType": 5126,
      "count": 8,
      "max": [
        -0.5426536798477173,
        0.8399566411972046,
        8.406069946656821e-18
      ],
      "min": [
        -0.8399566411972046,
        -0.5426536798477173,
        0.0
      ],
      "type": "VEC3"
    },
    {
      "bufferView": 1,
      "byteOffset": 4248,
      "componentType": 5126,
      "count": 8,
      "max": [
        1.0,
        1.0
      ],
      "min": [
        2.220446049250313e-16,
        0.0
      ],
      "type": "VEC2"
    },
    {
      "bufferView": 0,
      "byteOffset": 16044,
      "componentType": 5125,
      "count": 12,
      "type": "SCALAR"
    },
    {
      "bufferView": 2,
      "byteOffset": 33288,
      "componentType": 5126,
      "count": 12,
      "max": [
        195.7321319580078,
        150.45166015625,
        1474.0972900390625
      ],
      "min": [
        -179.35325622558594,
        -99.04598236083984,
        1302.2381591796875
      ],
      "type": "VEC3"
    },
    {
      "bufferView": 2,
      "byteOffset": 33432,
      "componentType": 5126,
      "count": 12,
      "max": [
        0.9776527285575867,
        -0.21022631227970123,
        -1.0010131612503415e-10
      ],
      "min": [
        -0.21022631227970123,
        -0.9776527285575867,
        -4.293319122439243e-08
      ],
      "type": "VEC3"
    },
    {
      "bufferView": 1,
      "byteOffset": 4312,
      "componentType": 5126,
      "count": 12,
      "max": [
        1.0,
        1.0
      ],
      "min": [
        0.0,
        0.0
      ],
      "type": "VEC2"
    },
    {
      "bufferView": 0,
      "byteOffset": 16092,
      "componentType": 5125,
      "count": 18,
      "type": "SCALAR"
    },
    {
      "bufferView": 2,
      "byteOffset": 33576,
      "componentType": 5126,
      "count": 24,
      "max": [
        356.0863342285156,
        652.5260620117188,
        789.5540771484375
      ],
      "min": [
        -197.92282104492188,
        -259.4002990722656,
        593.7283325195313
      ],
      "type": "VEC3"
    },
    {
      "bufferView": 2,
      "byteOffset": 33864,
      "componentType": 5126,
      "count": 24,
      "max": [
        0.8399566411972046,
        0.5426536798477173,
        0.7813250422477722
      ],
      "min": [
        0.33868342638015747,
        -0.8399566411972046,
        -2.3452131553479243e-15
      ],
      "type": "VEC3"
    },
    {
      "bufferView": 1,
      "byteOffset": 4408,
      "componentType": 5126,
      "count": 24,
      "max": [
        1.0,
        1.0
      ],
      "min": [
        1.1102230246251565e-16,
        2.220446049250313e-16
      ],
      "type": "VEC2"
    },
    {
      "bufferView": 0,
      "byteOffset": 16164,
      "componentType": 5125,
      "count": 36,
      "type": "SCALAR"
    },
    {
      "bufferView": 2,
      "byteOffset": 34152,
      "componentType": 5126,
      "count": 26,
      "max": [
        -1.8309415578842163,
        652.5260620117188,
        789.5540771484375
      ],
      "min": [
        -555.84033203125,
        -259.4002990722656,
        593.7283325195313
      ],
      "type": "VEC3"
    },
    {
      "bufferView": 2,
      "byteOffset": 34464,
      "componentType": 5126,
      "count": 26,
      "max": [
        -0.33868342638015747,
        0.8399566411972046,
        0.7813250422477722
      ],
      "min": [
        -0.8399566411972046,
        -0.5426536798477173,
        -8.416470882591839e-15
      ],
      "type": "VEC3"
    },
    {
      "bufferView": 1,
      "byteOffset": 4600,
      "componentType": 5126,
      "count": 26,
      "max": [
        1.0,
        1.0
      ],
      "min": [
        2.220446049250313e-16,
        2.220446049250313e-16
      ],
      "type": "VEC2"
    },
    {
      "bufferView": 0,
      "byteOffset": 16308,
      "componentType": 5125,
      "count": 42,
      "type": "SCALAR"
    },
    {
      "bufferView": 2,
      "byteOffset": 34776,
      "componentType": 5126,
      "count": 51,
      "max": [
        386.0016784667969,
        682.441162109375,
        2950.077880859375
      ],
      "min": [
        -585.755615234375,
        -289.3153991699219,
        593.7283325195313
      ],
      "type": "VEC3"
    },
    {
      "bufferView": 2,
      "byteOffset": 35388,
      "componentType": 5126,
      "count": 51,
      "max": [
        9.774146292329533e-08,
        8.794541983547788e-09,
        1.0
      ],
      "min": [
        -5.988585802814457e-17,
        -1.5139171694045217e-07,
        1.0
      ],
      "type": "VEC3"
    },
    {
      "bufferView": 1,
      "byteOffset": 4808,
      "componentType": 5126,
      "count": 51,
      "max": [
        6.452043056488037,
        6.609818935394287
      ],
      "min": [
        0.4756624102592468,
        0.1343104988336563
      ],
      "type": "VEC2"
    },
    {
      "bufferView": 0,
      "byteOffset": 16476,
      "componentType": 5125,
      "count": 129,
      "type": "SCALAR"
    },
    {
      "bufferView": 2,
      "byteOffset": 36000,
      "componentType": 5126,
      "count": 4,
      "max": [
        -179.36622619628906,
        242.70364379882813,
        1474.0972900390625
      ],
      "min": [
        -395.4397888183594,
        -91.74970245361328,
        1302.2381591796875
      ],
      "type": "VEC3"
    },
    {
      "bufferView": 2,
      "byteOffset": 36048,
      "componentType": 5126,
      "count": 4,
      "max": [
        -0.8399564623832703,
        -0.5426537394523621,
        6.068879798704074e-08
      ],
      "min": [
        -0.8399564623832703,
        -0.5426537394523621,
        6.068879798704074e-08
      ],
      "type": "VEC3"
    },
    {
      "bufferView": 1,
      "byteOffset": 5216,
      "componentType": 5126,
      "count": 4,
      "max": [
        1.0,
        1.0
      ],
      "min": [
        0.0,
        0.0
      ],
      "type": "VEC2"
    },
    {
      "bufferView": 0,
      "byteOffset": 16992,
      "componentType": 5125,
      "count": 6,
      "type": "SCALAR"
    },
    {
      "bufferView": 2,
      "byteOffset": 36096,
      "componentType": 5126,
      "count": 18,
      "max": [
        -20.40081024169922,
        492.17138671875,
        1474.0972900390625
      ],
      "min": [
        -395.4397888183594,
        242.70364379882813,
        1302.2381591796875
      ],
      "type": "VEC3"
    },
    {
      "bufferView": 2,
      "byteOffset": 36312,
      "componentType": 5126,
      "count": 18,
      "max": [
        0.21020576357841492,
        0.9776572585105896,
        8.58192166219851e-08
      ],
      "min": [
        -0.9776528477668762,
        0.2102261632680893,
        -4.8909083005810317e-08
      ],
      "type": "VEC3"
    },
    {
      "bufferView": 1,
      "byteOffset": 5248,
      "componentType": 5126,
      "count": 18,
      "max": [
        1.0,
        1.0
      ],
      "min": [
        0.0,
        0.0
      ],
      "type": "VEC2"
    },
    {
      "bufferView": 0,
      "byteOffset": 17016,
      "componentType": 5125,
      "count": 30,
      "type": "SCALAR"
    },
    {
      "bufferView": 2,
      "byteOffset": 36528,
      "componentType": 5126,
      "count": 8,
      "max": [
        49.39701843261719,
        890.7631225585938,
        471.8484191894531
      ],
      "min": [
        -794.0765991210938,
        -497.6368103027344,
        365.09368896484375
      ],
      "type": "VEC3"
    },
    {
      "bufferView": 2,
      "byteOffset": 36624,
      "componentType": 5126,
      "count": 8,
      "max": [
        -0.5426536798477173,
        0.8399566411972046,
        1.0462561552396958e-16
      ],
      "min": [
        -0.8399566411972046,
        -0.5426536798477173,
        5.350922525636924e-17
      ],
      "type": "VEC3"
    },
    {
      "bufferView": 1,
      "byteOffset": 5392,
      "componentType": 5126,
      "count": 8,
      "max": [
        1.0,
        1.0
      ],
      "min": [
        0.0,
        0.0
      ],
      "type": "VEC2"
    },
    {
      "bufferView": 0,
      "byteOffset": 17136,
      "componentType": 5125,
      "count": 12,
      "type": "SCALAR"
    },
    {
      "bufferView": 2,
      "byteOffset": 36720,
      "componentType": 5126,
      "count": 8,
      "max": [
        594.3226318359375,
        890.7631225585938,
        471.8484191894531
      ],
      "min": [
        -249.15084838867188,
        -497.6368103027344,
        365.09368896484375
      ],
      "type": "VEC3"
    },
    {
      "bufferView": 2,
      "byteOffset": 36816,
      "componentType": 5126,
      "count": 8,
      "max": [
        0.8399566411972046,
        0.5426536798477173,
        -1.72926821983702e-17
      ],
      "min": [
        0.5426536798477173,
        -0.8399566411972046,
        -1.408421106054931e-16
      ],
      "type": "VEC3"
    },
    {
      "bufferView": 1,
      "byteOffset": 5456,
      "componentType": 5126,
      "count": 8,
      "max": [
        1.0,
        1.0
      ],
      "min": [
        0.0,
        0.0
      ],
      "type": "VEC2"
    },
    {
      "bufferView": 0,
      "byteOffset": 17184,
      "componentType": 5125,
      "count": 12,
      "type": "SCALAR"
    },
    {
      "bufferView": 2,
      "byteOffset": 36912,
      "componentType": 5126,
      "count": 4,
      "max": [
        101.61825561523438,
        492.1421203613281,
        1474.0972900390625
      ],
      "min": [
        -371.9413146972656,
        141.47276306152344,
        1474.0972900390625
      ],
      "type": "VEC3"
    },
    {
      "bufferView": 2,
      "byteOffset": 36960,
      "componentType": 5126,
      "count": 4,
      "max": [
        4.226903982385011e-08,
        -3.649214974643655e-08,
        1.0
      ],
      "min": [
        4.226903982385011e-08,
        -3.649214974643655e-08,
        1.0
      ],
      "type": "VEC3"
    },
    {
      "bufferView": 1,
      "byteOffset": 5520,
      "componentType": 5126,
      "count": 4,
      "max": [
        5.538657188415527,
        5.873970985412598
      ],
      "min": [
        3.297797918319702,
        4.119029998779297
      ],
      "type": "VEC2"
    },
    {
      "bufferView": 0,
      "byteOffset": 17232,
      "componentType": 5125,
      "count": 6,
      "type": "SCALAR"
    },
    {
      "bufferView": 2,
      "byteOffset": 37008,
      "componentType": 5126,
      "count": 8,
      "max": [
        1010.8824462890625,
        1307.3228759765625,
        365.09368896484375
      ],
      "min": [
        -338.7237854003906,
        -914.1967163085938,
        219.14385986328125
      ],
      "type": "VEC3"
    },
    {
      "bufferView": 2,
      "byteOffset": 37104,
      "componentType": 5126,
      "count": 8,
      "max": [
        0.8399566411972046,
        0.5426536798477173,
        8.370283632874731e-12
      ],
      "min": [
        0.5426536798477173,
        -0.8399566411972046,
        -8.372532701861335e-12
      ],
      "type": "VEC3"
    },
    {
      "bufferView": 1,
      "byteOffset": 5552,
      "componentType": 5126,
      "count": 8,
      "max": [
        1.0,
        1.0
      ],
      "min": [
        0.0,
        2.1684039572300967e-19
      ],
      "type": "VEC2"
    },
    {
      "bufferView": 0,
      "byteOffset": 17256,
      "componentType": 5125,
      "count": 12,
      "type": "SCALAR"
    },
    {
      "bufferView": 2,
      "byteOffset": 37200,
      "componentType": 5126,
      "count": 8,
      "max": [
        138.9699249267578,
        1307.3228759765625,
        365.09368896484375
      ],
      "min": [
        -1210.636474609375,
        -914.1967163085938,
        219.14385986328125
      ],
      "type": "VEC3"
    },
    {
      "bufferView": 2,
      "byteOffset": 37296,
      "componentType": 5126,
      "count": 8,
      "max": [
        -0.5426536798477173,
        0.8399566411972046,
        -2.979900397617752e-12
      ],
      "min": [
        -0.8399566411972046,
        -0.5426536798477173,
        -2.9823103622067526e-12
      ],
      "type": "VEC3"
    },
    {
      "bufferView": 1,
      "byteOffset": 5616,
      "componentType": 5126,
      "count": 8,
      "max": [
        1.0,
        1.0
      ],
      "min": [
        5.437406167679848e-13,
        0.0
      ],
      "type": "VEC2"
    },
    {
      "bufferView": 0,
      "byteOffset": 17304,
      "componentType": 5125,
      "count": 12,
      "type": "SCALAR"
    },
    {
      "bufferView": 2,
      "byteOffset": 37392,
      "componentType": 5126,
      "count": 4,
      "max": [
        326.4075012207031,
        622.7643432617188,
        1302.2381591796875
      ],
      "min": [
        -8.26349925994873,
        104.9498519897461,
        1219.3765869140625
      ],
      "type": "VEC3"
    },
    {
      "bufferView": 2,
      "byteOffset": 37440,
      "componentType": 5126,
      "count": 4,
      "max": [
        0.8399516940116882,
        0.5426505208015442,
        -0.0033992740791291
      ],
      "min": [
        0.8399516940116882,
        0.5426505208015442,
        -0.0033992740791291
      ],
      "type": "VEC3"
    },
    {
      "bufferView": 1,
      "byteOffset": 5680,
      "componentType": 5126,
      "count": 4,
      "max": [
        1.0,
        1.0
      ],
      "min": [
        0.0,
        0.0
      ],
      "type": "VEC2"
    },
    {
      "bufferView": 0,
      "byteOffset": 17352,
      "componentType": 5125,
      "count": 6,
      "type": "SCALAR"
    },
    {
      "bufferView": 2,
      "byteOffset": 37488,
      "componentType": 5126,
      "count": 10,
      "max": [
        4.601535797119141,
        682.441162109375,
        593.7283325195313
      ],
      "min": [
        -585.755615234375,
        -289.3153991699219,
        471.8484191894531
      ],
      "type": "VEC3"
    },
    {
      "bufferView": 2,
      "byteOffset": 37608,
      "componentType": 5126,
      "count": 10,
      "max": [
        -0.5426536798477173,
        0.8399566411972046,
        2.758274284408086e-17
      ],
      "min": [
        -0.8399566411972046,
        -0.5426536798477173,
        -2.7903024993504574e-15
      ],
      "type": "VEC3"
    },
    {
      "bufferView": 1,
      "byteOffset": 5712,
      "componentType": 5126,
      "count": 10,
      "max": [
        1.0,
        1.0
      ],
      "min": [
        0.0,
        0.0
      ],
      "type": "VEC2"
    },
    {
      "bufferView": 0,
      "byteOffset": 17376,
      "componentType": 5125,
      "count": 18,
      "type": "SCALAR"
    },
    {
      "bufferView": 2,
      "byteOffset": 37728,
      "componentType": 5126,
      "count": 8,
      "max": [
        386.0016784667969,
        682.441162109375,
        593.7283325195313
      ],
      "min": [
        -204.35552978515625,
        -289.3153991699219,
        471.8484191894531
      ],
      "type": "VEC3"
    },
    {
      "bufferView": 2,
      "byteOffset": 37824,
      "componentType": 5126,
      "count": 8,
      "max": [
        0.8399566411972046,
        0.5426536798477173,
        1.8388491369211047e-17
      ],
      "min": [
        0.5426536798477173,
        -0.8399566411972046,
        8.144595570089395e-19
      ],
      "type": "VEC3"
    },
    {
      "bufferView": 1,
      "byteOffset": 5792,
      "componentType": 5126,
      "count": 8,
      "max": [
        1.0,
        1.0
      ],
      "min": [
        0.0,
        0.0
      ],
      "type": "VEC2"
    },
    {
      "bufferView": 0,
      "byteOffset": 17448,
      "componentType": 5125,
      "count": 12,
      "type": "SCALAR"
    },
    {
      "bufferView": 2,
      "byteOffset": 37920,
      "componentType": 5126,
      "count": 4,
      "max": [
        195.70208740234375,
        484.95135498046875,
        1474.0972900390625
      ],
      "min": [
        -20.371374130249023,
        150.49803161621094,
        1302.2381591796875
      ],
      "type": "VEC3"
    },
    {
      "bufferView": 2,
      "byteOffset": 37968,
      "componentType": 5126,
      "count": 4,
      "max": [
        0.8399564623832703,
        0.5426537990570068,
        6.102233933883241e-16
      ],
      "min": [
        0.8399564623832703,
        0.5426537990570068,
        6.102233933883241e-16
      ],
      "type": "VEC3"
    },
    {
      "bufferView": 1,
      "byteOffset": 5856,
      "componentType": 5126,
      "count": 4,
      "max": [
        1.0,
        1.0
      ],
      "min": [
        0.0,
        0.0
      ],
      "type": "VEC2"
    },
    {
      "bufferView": 0,
      "byteOffset": 17496,
      "componentType": 5125,
      "count": 6,
      "type": "SCALAR"
    },
    {
      "bufferView": 2,
      "byteOffset": 38016,
      "componentType": 5126,
      "count": 5,
      "max": [
        -8.26349925994873,
        622.8475952148438,
        1302.2381591796875
      ],
      "min": [
        -526.0784912109375,
        288.17626953125,
        1219.3765869140625
      ],
      "type": "VEC3"
    },
    {
      "bufferView": 2,
      "byteOffset": 38076,
      "componentType": 5126,
      "count": 5,
      "max": [
        -0.5426505208015442,
        0.8399516940116882,
        -0.0033992740791291
      ],
      "min": [
        -0.5426505208015442,
        0.8399516940116882,
        -0.0033992740791291
      ],
      "type": "VEC3"
    },
    {
      "bufferView": 1,
      "byteOffset": 5888,
      "componentType": 5126,
      "count": 5,
      "max": [
        1.0,
        1.0
      ],
      "min": [
        0.0,
        0.0
      ],
      "type": "VEC2"
    },
    {
      "bufferView": 0,
      "byteOffset": 17520,
      "componentType": 5125,
      "count": 9,
      "type": "SCALAR"
    },
    {
      "bufferView": 2,
      "byteOffset": 38136,
      "componentType": 5126,
      "count": 4,
      "max": [
        326.32452392578125,
        104.9498519897461,
        1302.2381591796875
      ],
      "min": [
        -191.4901885986328,
        -229.7214813232422,
        1219.3765869140625
      ],
      "type": "VEC3"
    },
    {
      "bufferView": 2,
      "byteOffset": 38184,
      "componentType": 5126,
      "count": 4,
      "max": [
        0.5426505208015442,
        -0.8399516940116882,
        -0.0033992740791291
      ],
      "min": [
        0.5426505208015442,
        -0.8399516940116882,
        -0.0033992740791291
      ],
      "type": "VEC3"
    },
    {
      "bufferView": 1,
      "byteOffset": 5928,
      "componentType": 5126,
      "count": 4,
      "max": [
        1.0,
        1.0
      ],
      "min": [
        0.0,
        0.0
      ],
      "type": "VEC2"
    },
    {
      "bufferView": 0,
      "byteOffset": 17556,
      "componentType": 5125,
      "count": 6,
      "type": "SCALAR"
    },
    {
      "bufferView": 2,
      "byteOffset": 38232,
      "componentType": 5126,
      "count": 15,
      "max": [
        195.7321319580078,
        492.17138671875,
        1474.0972900390625
      ],
      "min": [
        -395.4397888183594,
        -99.01597595214844,
        1474.0972900390625
      ],
      "type": "VEC3"
    },
    {
      "bufferView": 2,
      "byteOffset": 38412,
      "componentType": 5126,
      "count": 15,
      "max": [
        6.026979804119037e-08,
        3.1306868208957894e-08,
        1.0
      ],
      "min": [
        6.026979804119037e-08,
        3.1306868208957894e-08,
        1.0
      ],
      "type": "VEC3"
    },
    {
      "bufferView": 1,
      "byteOffset": 5960,
      "componentType": 5126,
      "count": 15,
      "max": [
        5.71619987487793,
        5.8739728927612305
      ],
      "min": [
        3.1652801036834717,
        3.32275390625
      ],
      "type": "VEC2"
    },
    {
      "bufferView": 0,
      "byteOffset": 17580,
      "componentType": 5125,
      "count": 39,
      "type": "SCALAR"
    },
    {
      "bufferView": 2,
      "byteOffset": 38592,
      "componentType": 5126,
      "count": 4,
      "max": [
        -191.4901885986328,
        288.17626953125,
        1302.2381591796875
      ],
      "min": [
        -526.1614379882813,
        -229.63844299316406,
        1219.3765869140625
      ],
      "type": "VEC3"
    },
    {
      "bufferView": 2,
      "byteOffset": 38640,
      "componentType": 5126,
      "count": 4,
      "max": [
        -0.8399516940116882,
        -0.5426505208015442,
        -0.0033992740791291
      ],
      "min": [
        -0.8399516940116882,
        -0.5426505208015442,
        -0.0033992740791291
      ],
      "type": "VEC3"
    },
    {
      "bufferView": 1,
      "byteOffset": 6080,
      "componentType": 5126,
      "count": 4,
      "max": [
        1.0,
        1.0
      ],
      "min": [
        2.220446049250313e-16,
        0.0
      ],
      "type": "VEC2"
    },
    {
      "bufferView": 0,
      "byteOffset": 17736,
      "componentType": 5125,
      "count": 6,
      "type": "SCALAR"
    },
    {
      "bufferView": 2,
      "byteOffset": 38688,
      "componentType": 5126,
      "count": 2,
      "max": [
        128.26849365234375,
        295.9858703613281,
        2096.322265625
      ],
      "min": [
        97.11056518554688,
        233.24505615234375,
        2081.843505859375
      ],
      "type": "VEC3"
    },
    {
      "bufferView": 0,
      "byteOffset": 17760,
      "componentType": 5125,
      "count": 2,
      "type": "SCALAR"
    },
    {
      "bufferView": 2,
      "byteOffset": 38712,
      "componentType": 5126,
      "count": 180,
      "max": [
        290.8934631347656,
        399.9299621582031,
        2769.57861328125
      ],
      "min": [
        -326.11431884765625,
        16.58776092529297,
        1474.096923828125
      ],
      "type": "VEC3"
    },
    {
      "bufferView": 2,
      "byteOffset": 40872,
      "componentType": 5126,
      "count": 180,
      "max": [
        0.9838005304336548,
        0.9967636466026306,
        0.9584435820579529
      ],
      "min": [
        -0.9890809059143066,
        -0.9959627985954285,
        -0.959505558013916
      ],
      "type": "VEC3"
    },
    {
      "bufferView": 1,
      "byteOffset": 6112,
      "componentType": 5126,
      "count": 180,
      "max": [
        0.9921510219573975,
        0.8575232028961182
      ],
      "min": [
        0.006092004012316465,
        -1.2683710082228572e-08
      ],
      "type": "VEC2"
    },
    {
      "bufferView": 0,
      "byteOffset": 17768,
      "componentType": 5125,
      "count": 555,
      "type": "SCALAR"
    },
    {
      "bufferView": 2,
      "byteOffset": 43032,
      "componentType": 5126,
      "count": 45,
      "max": [
        25.964824676513672,
        270.45550537109375,
        3019.345703125
      ],
      "min": [
        -228.5821990966797,
        -117.4969253540039,
        2146.909423828125
      ],
      "type": "VEC3"
    },
    {
      "bufferView": 2,
      "byteOffset": 43572,
      "componentType": 5126,
      "count": 45,
      "max": [
        0.8756281137466431,
        0.48618337512016296,
        0.9073702692985535
      ],
      "min": [
        -0.9596999287605286,
        -0.8397098779678345,
        -1.0
      ],
      "type": "VEC3"
    },
    {
      "bufferView": 0,
      "byteOffset": 19988,
      "componentType": 5125,
      "count": 69,
      "type": "SCALAR"
    },
    {
      "bufferView": 2,
      "byteOffset": 44112,
      "componentType": 5126,
      "count": 459,
      "max": [
        1803.512939453125,
        2033.1400146484375,
        3034.55126953125
      ],
      "min": [
        -1938.4549560546875,
        -1706.387939453125,
        0.0
      ],
      "type": "VEC3"
    },
    {
      "bufferView": 0,
      "byteOffset": 20264,
      "componentType": 5125,
      "count": 2086,
      "type": "SCALAR"
    },
    {
      "bufferView": 2,
      "byteOffset": 49620,
      "componentType": 5126,
      "count": 10,
      "max": [
        195.7321319580078,
        492.17138671875,
        1474.0972900390625
      ],
      "min": [
        -395.4859924316406,
        -99.04598236083984,
        1302.2381591796875
      ],
      "type": "VEC3"
    },
    {
      "bufferView": 0,
      "byteOffset": 28608,
      "componentType": 5125,
      "count": 10,
      "type": "SCALAR"
    }
  ],
  "asset": {
    "extras": {
      "author": "Polskaball (https://sketchfab.com/augustgamer1808)",
      "license": "CC-BY-4.0 (http://creativecommons.org/licenses/by/4.0/)",
      "source": "https://sketchfab.com/3d-models/statue-of-liberty-8789c44648254d6fba0608439daf25d3",
      "title": "Statue of Liberty"
    },
    "generator": "Sketchfab-15.36.0",
    "version": "2.0"
  },
  "bufferViews": [
    {
      "buffer": 0,
      "byteLength": 28648,
      "name": "floatBufferViews",
      "target": 34963
    },
    {
      "buffer": 0,
      "byteLength": 7552,
      "byteOffset": 28648,
      "byteStride": 8,
      "name": "floatBufferViews",
      "target": 34962
    },
    {
      "buffer": 0,
      "byteLength": 49740,
      "byteOffset": 36200,
      "byteStride": 12,
      "name": "floatBufferViews",
      "target": 34962
    }
  ],
  "buffers": [
    {
      "byteLength": 85940,
      "uri": "scene.bin"
    }
  ],
  "extensionsUsed": [
    "KHR_materials_specular"
  ],
  "images": [
    {
      "uri": "textures/94_20Statue_20of_20Liberty_17_baseColor.jpeg"
    },
    {
      "uri": "textures/Google_Earth_Snapshot2_baseColor.jpeg"
    },
    {
      "uri": "textures/material_2_baseColor.jpeg"
    },
    {
      "uri": "textures/94_20Statue_20of_20Liberty_baseColor.jpeg"
    },
    {
      "uri": "textures/94_20Statue_20of_20Liberty_specularf0.png"
    },
    {
      "uri": "textures/94_20Statue_20of_20Liberty_0_baseColor.jpeg"
    },
    {
      "uri": "textures/94_20Statue_20of_20Liberty_0_specularf0.png"
    },
    {
      "uri": "textures/94_20Statue_20of_20Liberty_1_baseColor.jpeg"
    },
    {
      "uri": "textures/94_20Statue_20of_20Liberty_2_baseColor.jpeg"
    },
    {
      "uri": "textures/94_20Statue_20of_20Liberty_3_baseColor.jpeg"
    },
    {
      "uri": "textures/Gray6_1_baseColor.jpeg"
    },
    {
      "uri": "textures/94_20Statue_20of_20Liberty_4_baseColor.jpeg"
    },
    {
      "uri": "textures/94_20Statue_20of_20Liberty_5_baseColor.jpeg"
    },
    {
      "uri": "textures/94_20Statue_20of_20Liberty_6_baseColor.jpeg"
    },
    {
      "uri": "textures/94_20Statue_20of_20Liberty_7_baseColor.jpeg"
    },
    {
      "uri": "textures/material_1_baseColor.jpeg"
    },
    {
      "uri": "textures/94_20Statue_20of_20Liberty_8_baseColor.jpeg"
    },
    {
      "uri": "textures/94_20Statue_20of_20Liberty_9_baseColor.jpeg"
    },
    {
      "uri": "textures/94_20Statue_20of_20Liberty_10_baseColor.jpeg"
    },
    {
      "uri": "textures/94_20Statue_20of_20Liberty_11_baseColor.jpeg"
    },
    {
      "uri": "textures/94_20Statue_20of_20Liberty_12_baseColor.jpeg"
    },
    {
      "uri": "textures/94_20Statue_20of_20Liberty_13_baseColor.jpeg"
    },
    {
      "uri": "textures/94_20Statue_20of_20Liberty_14_baseColor.jpeg"
    },
    {
      "uri": "textures/94_20Statue_20of_20Liberty_15_baseColor.jpeg"
    },
    {
      "uri": "textures/Color_H10_baseColor.jpeg"
    },
    {
      "uri": "textures/94_20Statue_20of_20Liberty_16_baseColor.jpeg"
    },
    {
      "uri": "textures/Statue-thumb_baseColor.jpeg"
    }
  ],
  "materials": [
    {
      "name": "edge_color000255",
      "pbrMetallicRoughness": {
        "metallicFactor": 0.0,
        "roughnessFactor": 0.6
      }
    },
    {
      "name": "94_20Statue_20of_20Liberty_17",
      "pbrMetallicRoughness": {
        "baseColorTexture": {
          "index": 0
        },
        "metallicFactor": 0.0,
        "roughnessFactor": 0.6
      }
    },
    {
      "name": "material",
      "pbrMetallicRoughness": {
        "baseColorFactor": [
          0.670588,
          0.690196,
          0.8,
          1.0
        ],
        "metallicFactor": 0.0,
        "roughnessFactor": 0.6
      }
    },
    {
      "name": "Google_Earth_Snapshot2",
      "pbrMetallicRoughness": {
        "baseColorTexture": {
          "index": 1
        },
        "metallicFactor": 0.0,
        "roughnessFactor": 0.6
      }
    },
    {
      "name": "material_2",
      "pbrMetallicRoughness": {
        "baseColorTexture": {
          "index": 2
        },
        "metallicFactor": 0.0,
        "roughnessFactor": 0.6
      }
    },
    {
      "extensions": {
        "KHR_materials_specular": {
          "specularColorFactor": [
            1.0,
            1.0,
            1.0
          ],
          "specularFactor": 1.0,
          "specularTexture": {
            "index": 4
          }
        }
      },
      "name": "94_20Statue_20of_20Liberty",
      "pbrMetallicRoughness": {
        "baseColorTexture": {
          "index": 3
        },
        "metallicFactor": 0.0,
        "roughnessFactor": 0.6
      }
    },
    {
      "extensions": {
        "KHR_materials_specular": {
          "specularColorFactor": [
            1.0,
            1.0,
            1.0
          ],
          "specularFactor": 1.0,
          "specularTexture": {
            "index": 6
          }
        }
      },
      "name": "94_20Statue_20of_20Liberty_0",
      "pbrMetallicRoughness": {
        "baseColorTexture": {
          "index": 5
        },
        "metallicFactor": 0.0,
        "roughnessFactor": 0.6
      }
    },
    {
      "name": "edge_color101154205255",
      "pbrMetallicRoughness": {
        "metallicFactor": 0.0,
        "roughnessFactor": 0.6
      }
    },
    {
      "extensions": {
        "KHR_materials_specular": {
          "specularColorFactor": [
            1.0,
            1.0,
            1.0
          ],
          "specularFactor": 1.0,
          "specularTexture": {
            "index": 4
          }
        }
      },
      "name": "94_20Statue_20of_20Liberty_1",
      "pbrMetallicRoughness": {
        "baseColorTexture": {
          "index": 7
        },
        "metallicFactor": 0.0,
        "roughnessFactor": 0.6
      }
    },
    {
      "name": "94_20Statue_20of_20Liberty_2",
      "pbrMetallicRoughness": {
        "baseColorTexture": {
          "index": 8
        },
        "metallicFactor": 0.0,
        "roughnessFactor": 0.6
      }
    },
    {
      "name": "94_20Statue_20of_20Liberty_3",
      "pbrMetallicRoughness": {
        "baseColorTexture": {
          "index": 9
        },
        "metallicFactor": 0.0,
        "roughnessFactor": 0.6
      }
    },
    {
      "name": "Gray6_1",
      "pbrMetallicRoughness": {
        "baseColorTexture": {
          "index": 10
        },
        "metallicFactor": 0.0,
        "roughnessFactor": 0.6
      }
    },
    {
      "name": "94_20Statue_20of_20Liberty_4",
      "pbrMetallicRoughness": {
        "baseColorTexture": {
          "index": 11
        },
        "metallicFactor": 0.0,
        "roughnessFactor": 0.6
      }
    },
    {
      "name": "94_20Statue_20of_20Liberty_5",
      "pbrMetallicRoughness": {
        "baseColorTexture": {
          "index": 12
        },
        "metallicFactor": 0.0,
        "roughnessFactor": 0.6
      }
    },
    {
      "name": "94_20Statue_20of_20Liberty_6",
      "pbrMetallicRoughness": {
        "baseColorTexture": {
          "index": 13
        },
        "metallicFactor": 0.0,
        "roughnessFactor": 0.6
      }
    },
    {
      "name": "94_20Statue_20of_20Liberty_7",
      "pbrMetallicRoughness": {
        "baseColorTexture": {
          "index": 14
        },
        "metallicFactor": 0.0,
        "roughnessFactor": 0.6
      }
    },
    {
      "name": "material_1",
      "pbrMetallicRoughness": {
        "baseColorTexture": {
          "index": 15
        },
        "metallicFactor": 0.0,
        "roughnessFactor": 0.6
      }
    },
    {
      "name": "94_20Statue_20of_20Liberty_8",
      "pbrMetallicRoughness": {
        "baseColorTexture": {
          "index": 16
        },
        "metallicFactor": 0.0,
        "roughnessFactor": 0.6
      }
    },
    {
      "name": "94_20Statue_20of_20Liberty_9",
      "pbrMetallicRoughness": {
        "baseColorTexture": {
          "index": 17
        },
        "metallicFactor": 0.0,
        "roughnessFactor": 0.6
      }
    },
    {
      "extensions": {
        "KHR_materials_specular": {
          "specularColorFactor": [
            1.0,
            1.0,
            1.0
          ],
          "specularFactor": 1.0,
          "specularTexture": {
            "index": 4
          }
        }
      },
      "name": "94_20Statue_20of_20Liberty_10",
      "pbrMetallicRoughness": {
        "baseColorTexture": {
          "index": 18
        },
        "metallicFactor": 0.0,
        "roughnessFactor": 0.6
      }
    },
    {
      "name": "94_20Statue_20of_20Liberty_11",
      "pbrMetallicRoughness": {
        "baseColorTexture": {
          "index": 19
        },
        "metallicFactor": 0.0,
        "roughnessFactor": 0.6
      }
    },
    {
      "name": "94_20Statue_20of_20Liberty_12",
      "pbrMetallicRoughness": {
        "baseColorTexture": {
          "index": 20
        },
        "metallicFactor": 0.0,
        "roughnessFactor": 0.6
      }
    },
    {
      "name": "94_20Statue_20of_20Liberty_13",
      "pbrMetallicRoughness": {
        "baseColorTexture": {
          "index": 21
        },
        "metallicFactor": 0.0,
        "roughnessFactor": 0.6
      }
    },
    {
      "name": "94_20Statue_20of_20Liberty_14",
      "pbrMetallicRoughness": {
        "baseColorTexture": {
          "index": 22
        },
        "metallicFactor": 0.0,
        "roughnessFactor": 0.6
      }
    },
    {
      "name": "94_20Statue_20of_20Liberty_15",
      "pbrMetallicRoughness": {
        "baseColorTexture": {
          "index": 23
        },
        "metallicFactor": 0.0,
        "roughnessFactor": 0.6
      }
    },
    {
      "name": "Color_H10",
      "pbrMetallicRoughness": {
        "baseColorTexture": {
          "index": 24
        },
        "metallicFactor": 0.0,
        "roughnessFactor": 0.6
      }
    },
    {
      "name": "94_20Statue_20of_20Liberty_16",
      "pbrMetallicRoughness": {
        "baseColorTexture": {
          "index": 25
        },
        "metallicFactor": 0.0,
        "roughnessFactor": 0.6
      }
    },
    {
      "name": "edge_color90153166255",
      "pbrMetallicRoughness": {
        "metallicFactor": 0.0,
        "roughnessFactor": 0.6
      }
    },
    {
      "name": "Statue-thumb",
      "pbrMetallicRoughness": {
        "baseColorTexture": {
          "index": 26
        },
        "metallicFactor": 0.0,
        "roughnessFactor": 0.6
      }
    },
    {
      "name": "material_18",
      "pbrMetallicRoughness": {
        "metallicFactor": 0.0,
        "roughnessFactor": 0.6
      }
    }
  ],
  "meshes": [
    {
      "name": "Material3",
      "primitives": [
        {
          "attributes": {
            "NORMAL": 1,
            "POSITION": 0,
            "TEXCOORD_0": 2
          },
          "indices": 3,
          "material": 1,
          "mode": 4
        }
      ]
    },
    {
      "name": "Material2",
      "primitives": [
        {
          "attributes": {
            "NORMAL": 5,
            "POSITION": 4
          },
          "indices": 6,
          "material": 2,
          "mode": 4
        }
      ]
    },
    {
      "name": "Material3",
      "primitives": [
        {
          "attributes": {
            "NORMAL": 8,
            "POSITION": 7,
            "TEXCOORD_0": 9
          },
          "indices": 10,
          "material": 3,
          "mode": 4
        }
      ]
    },
    {
      "name": "Material2",
      "primitives": [
        {
          "attributes": {
            "NORMAL": 12,
            "POSITION": 11,
            "TEXCOORD_0": 13
          },
          "indices": 14,
          "material": 4,
          "mode": 4
        }
      ]
    },
    {
      "name": "Material3",
      "primitives": [
        {
          "attributes": {
            "NORMAL": 16,
            "POSITION": 15,
            "TEXCOORD_0": 17
          },
          "indices": 18,
          "material": 5,
          "mode": 4
        }
      ]
    },
    {
      "name": "Material4",
      "primitives": [
        {
          "attributes": {
            "NORMAL": 20,
            "POSITION": 19,
            "TEXCOORD_0": 21
          },
          "indices": 22,
          "material": 6,
          "mode": 4
        }
      ]
    },
    {
      "name": "Material3",
      "primitives": [
        {
          "attributes": {
            "NORMAL": 24,
            "POSITION": 23,
            "TEXCOORD_0": 25
          },
          "indices": 26,
          "material": 8,
          "mode": 4
        }
      ]
    },
    {
      "name": "Material3",
      "primitives": [
        {
          "attributes": {
            "NORMAL": 28,
            "POSITION": 27,
            "TEXCOORD_0": 29
          },
          "indices": 30,
          "material": 9,
          "mode": 4
        }
      ]
    },
    {
      "name": "Material4",
      "primitives": [
        {
          "attributes": {
            "NORMAL": 32,
            "POSITION": 31,
            "TEXCOORD_0": 33
          },
          "indices": 34,
          "material": 10,
          "mode": 4
        }
      ]
    },
    {
      "name": "Material3",
      "primitives": [
        {
          "attributes": {
            "NORMAL": 36,
            "POSITION": 35,
            "TEXCOORD_0": 37
          },
          "indices": 38,
          "material": 11,
          "mode": 4
        }
      ]
    },
    {
      "name": "Material3",
      "primitives": [
        {
          "attributes": {
            "NORMAL": 40,
            "POSITION": 39,
            "TEXCOORD_0": 41
          },
          "indices": 42,
          "material": 12,
          "mode": 4
        }
      ]
    },
    {
      "name": "Material3",
      "primitives": [
        {
          "attributes": {
            "NORMAL": 44,
            "POSITION": 43,
            "TEXCOORD_0": 45
          },
          "indices": 46,
          "material": 13,
          "mode": 4
        }
      ]
    },
    {
      "name": "Material3",
      "primitives": [
        {
          "attributes": {
            "NORMAL": 48,
            "POSITION": 47,
            "TEXCOORD_0": 49
          },
          "indices": 50,
          "material": 14,
          "mode": 4
        }
      ]
    },
    {
      "name": "Material4",
      "primitives": [
        {
          "attributes": {
            "NORMAL": 52,
            "POSITION": 51,
            "TEXCOORD_0": 53
          },
          "indices": 54,
          "material": 15,
          "mode": 4
        }
      ]
    },
    {
      "name": "Material3",
      "primitives": [
        {
          "attributes": {
            "NORMAL": 56,
            "POSITION": 55,
            "TEXCOORD_0": 57
          },
          "indices": 58,
          "material": 16,
          "mode": 4
        }
      ]
    },
    {
      "name": "Material3",
      "primitives": [
        {
          "attributes": {
            "NORMAL": 60,
            "POSITION": 59,
            "TEXCOORD_0": 61
          },
          "indices": 62,
          "material": 17,
          "mode": 4
        }
      ]
    },
    {
      "name": "Material4",
      "primitives": [
        {
          "attributes": {
            "NORMAL": 64,
            "POSITION": 63,
            "TEXCOORD_0": 65
          },
          "indices": 66,
          "material": 18,
          "mode": 4
        }
      ]
    },
    {
      "name": "Material3",
      "primitives": [
        {
          "attributes": {
            "NORMAL": 68,
            "POSITION": 67,
            "TEXCOORD_0": 69
          },
          "indices": 70,
          "material": 19,
          "mode": 4
        }
      ]
    },
    {
      "name": "Material3",
      "primitives": [
        {
          "attributes": {
            "NORMAL": 72,
            "POSITION": 71,
            "TEXCOORD_0": 73
          },
          "indices": 74,
          "material": 20,
          "mode": 4
        }
      ]
    },
    {
      "name": "Material4",
      "primitives": [
        {
          "attributes": {
            "NORMAL": 76,
            "POSITION": 75,
            "TEXCOORD_0": 77
          },
          "indices": 78,
          "material": 21,
          "mode": 4
        }
      ]
    },
    {
      "name": "Material3",
      "primitives": [
        {
          "attributes": {
            "NORMAL": 80,
            "POSITION": 79,
            "TEXCOORD_0": 81
          },
          "indices": 82,
          "material": 22,
          "mode": 4
        }
      ]
    },
    {
      "name": "Material3",
      "primitives": [
        {
          "attributes": {
            "NORMAL": 84,
            "POSITION": 83,
            "TEXCOORD_0": 85
          },
          "indices": 86,
          "material": 23,
          "mode": 4
        }
      ]
    },
    {
      "name": "Material3",
      "primitives": [
        {
          "attributes": {
            "NORMAL": 88,
            "POSITION": 87,
            "TEXCOORD_0": 89
          },
          "indices": 90,
          "material": 24,
          "mode": 4
        }
      ]
    },
    {
      "name": "Material3",
      "primitives": [
        {
          "attributes": {
            "NORMAL": 92,
            "POSITION": 91,
            "TEXCOORD_0": 93
          },
          "indices": 94,
          "material": 25,
          "mode": 4
        }
      ]
    },
    {
      "name": "Material3",
      "primitives": [
        {
          "attributes": {
            "NORMAL": 96,
            "POSITION": 95,
            "TEXCOORD_0": 97
          },
          "indices": 98,
          "material": 26,
          "mode": 4
        }
      ]
    },
    {
      "name": "Material5",
      "primitives": [
        {
          "attributes": {
            "POSITION": 99
          },
          "indices": 100,
          "material": 27,
          "mode": 1
        }
      ]
    },
    {
      "name": "Material3",
      "primitives": [
        {
          "attributes": {
            "NORMAL": 102,
            "POSITION": 101,
            "TEXCOORD_0": 103
          },
          "indices": 104,
          "material": 28,
          "mode": 4
        }
      ]
    },
    {
      "name": "Material3",
      "primitives": [
        {
          "attributes": {
            "NORMAL": 106,
            "POSITION": 105
          },
          "indices": 107,
          "material": 29,
          "mode": 4
        }
      ]
    },
    {
      "name": "Material2",
      "primitives": [
        {
          "attributes": {
            "POSITION": 108
          },
          "indices": 109,
          "material": 0,
          "mode": 1
        }
      ]
    },
    {
      "name": "Material2",
      "primitives": [
        {
          "attributes": {
            "POSITION": 110
          },
          "indices": 111,
          "material": 7,
          "mode": 1
        }
      ]
    }
  ],
  "nodes": [
    {
      "children": [
        1
      ],
      "matrix": [
        1.0,
        0.0,
        0.0,
        0.0,
        0.0,
        2.220446049250313e-16,
        -1.0,
        0.0,
        0.0,
        1.0,
        2.220446049250313e-16,
        0.0,
        0.0,
        0.0,
        0.0,
        1.0
      ],
      "name": "Sketchfab_model"
    },
    {
      "children": [
        2,
        3,
        4,
        5,
        6,
        7,
        8,
        9,
        10,
        11,
        12,
        13,
        14,
        15,
        16,
        17,
        18,
        19,
        20,
        21,
        22,
        23,
        24,
        25,
        26,
        27,
        28,
        29,
        30,
        31,
        32
      ],
      "name": "Collada visual scene group"
    },
    {
      "mesh": 0,
      "name": "Material3"
    },
    {
      "mesh": 1,
      "name": "Material2"
    },
    {
      "mesh": 2,
      "name": "Material3"
    },
    {
      "mesh": 3,
      "name": "Material2"
    },
    {
      "mesh": 4,
      "name": "Material3"
    },
    {
      "mesh": 5,
      "name": "Material4"
    },
    {
      "mesh": 6,
      "name": "Material3"
    },
    {
      "mesh": 7,
      "name": "Material3"
    },
    {
      "mesh": 8,
      "name": "Material4"
    },
    {
      "mesh": 9,
      "name": "Material3"
    },
    {
      "mesh": 10,
      "name": "Material3"
    },
    {
      "mesh": 11,
      "name": "Material3"
    },
    {
      "mesh": 12,
      "name": "Material3"
    },
    {
      "mesh": 13,
      "name": "Material4"
    },
    {
      "mesh": 14,
      "name": "Material3"
    },
    {
      "mesh": 15,
      "name": "Material3"
    },
    {
      "mesh": 16,
      "name": "Material4"
    },
    {
      "mesh": 17,
      "name": "Material3"
    },
    {
      "mesh": 18,
      "name": "Material3"
    },
    {
      "mesh": 19,
      "name": "Material4"
    },
    {
      "mesh": 20,
      "name": "Material3"
    },
    {
      "mesh": 21,
      "name": "Material3"
    },
    {
      "mesh": 22,
      "name": "Material3"
    },
    {
      "mesh": 23,
      "name": "Material3"
    },
    {
      "mesh": 24,
      "name": "Material3"
    },
    {
      "mesh": 25,
      "name": "Material5"
    },
    {
      "mesh": 26,
      "name": "Material3"
    },
    {
      "mesh": 27,
      "name": "Material3"
    },
    {
      "mesh": 28,
      "name": "Material2"
    },
    {
      "mesh": 29,
      "name": "Material2"
    },
    {
      "children": [
        33
      ],
      "name": "SketchUp"
    },
    {
      "children": [
        34
      ],
      "matrix": [
        0.9801369,
        0.1983222,
        0.0,
        0.0,
        -0.06818333,
        0.3369718,
        0.9390426,
        0.0,
        0.186233,
        -0.9203903,
        0.3438008,
        0.0,
        1458.267,
        -7356.55,
        3458.373,
        1.0
      ],
      "name": "skp_camera_Last_Saved_SketchUp_View"
    },
    {
      "name": "ID1"
    }
  ],
  "samplers": [
    {
      "magFilter": 9729,
      "minFilter": 9987,
      "wrapS": 10497,
      "wrapT": 10497
    }
  ],
  "scene": 0,
  "scenes": [
    {
      "name": "Sketchfab_Scene",
      "nodes": [
        0
      ]
    }
  ],
  "textures": [
    {
      "sampler": 0,
      "source": 0
    },
    {
      "sampler": 0,
      "source": 1
    },
    {
      "sampler": 0,
      "source": 2
    },
    {
      "sampler": 0,
      "source": 3
    },
    {
      "sampler": 0,
      "source": 4
    },
    {
      "sampler": 0,
      "source": 5
    },
    {
      "sampler": 0,
      "source": 6
    },
    {
      "sampler": 0,
      "source": 7
    },
    {
      "sampler": 0,
      "source": 8
    },
    {
      "sampler": 0,
      "source": 9
    },
    {
      "sampler": 0,
      "source": 10
    },
    {
      "sampler": 0,
      "source": 11
    },
    {
      "sampler": 0,
      "source": 12
    },
    {
      "sampler": 0,
      "source": 13
    },
    {
      "sampler": 0,
      "source": 14
    },
    {
      "sampler": 0,
      "source": 15
    },
    {
      "sampler": 0,
      "source": 16
    },
    {
      "sampler": 0,
      "source": 17
    },
    {
      "sampler": 0,
      "source": 18
    },
    {
      "sampler": 0,
      "source": 19
    },
    {
      "sampler": 0,
      "source": 20
    },
    {
      "sampler": 0,
      "source": 21
    },
    {
      "sampler": 0,
      "source": 22
    },
    {
      "sampler": 0,
      "source": 23
    },
    {
      "sampler": 0,
      "source": 24
    },
    {
      "sampler": 0,
      "source": 25
    },
    {
      "sampler": 0,
      "source": 26
    }
  ]
}
