{
  "accessors": [
    {
      "bufferView": 2,
      "componentType": 5126,
      "count": 121,
      "max": [
        337.055908203125,
        14.839158058166504,
        200.0
      ],
      "min": [
        -337.0558776855469,
        -19.358009338378906,
        -200.0
      ],
      "type": "VEC3"
    },
    {
      "bufferView": 2,
      "byteOffset": 1452,
      "componentType": 5126,
      "count": 121,
      "max": [
        0.11004037410020828,
        0.9998654127120972,
        0.11033453047275543
      ],
      "min": [
        -0.2031531184911728,
        0.9734115600585938,
        -0.08103462308645248
      ],
      "type": "VEC3"
    },
    {
      "bufferView": 1,
      "componentType": 5126,
      "count": 121,
      "max": [
        1.0,
        1.0
      ],
      "min": [
        0.0,
        0.0
      ],
      "type": "VEC2"
    },
    {
      "bufferView": 2,
      "byteOffset": 2904,
      "componentType": 5126,
      "count": 121,
      "max": [
        0.0,
        3.501248836517334,
        0.0
      ],
      "min": [
        0.0,
        -4.697096347808838,
        0.0
      ],
      "type": "VEC3"
    },
    {
      "bufferView": 2,
      "byteOffset": 4356,
      "componentType": 5126,
      "count": 121,
      "max": [
        0.06092746928334236,
        0.004425644874572754,
        0.0019602589309215546
      ],
      "min": [
        -0.058177195489406586,
        -0.005443930625915527,
        -0.0019819089211523533
      ],
      "type": "VEC3"
    },
    {
      "bufferView": 2,
      "byteOffset": 5808,
      "componentType": 5126,
      "count": 121,
      "max": [
        0.0,
        6.939957618713379,
        0.0
      ],
      "min": [
        0.0,
        -9.299463272094727,
        0.0
      ],
      "type": "VEC3"
    },
    {
      "bufferView": 2,
      "byteOffset": 7260,
      "componentType": 5126,
      "count": 121,
      "max": [
        0.1107729822397232,
        0.00784975290298462,
        0.0038604773581027985
      ],
      "min": [
        -0.11524618417024612,
        -0.010070264339447021,
        -0.003941217437386513
      ],
      "type": "VEC3"
    },
    {
      "bufferView": 2,
      "byteOffset": 8712,
      "componentType": 5126,
      "count": 121,
      "max": [
        0.0,
        9.600192070007324,
        0.0
      ],
      "min": [
        0.0,
        -13.075270652770996,
        0.0
      ],
      "type": "VEC3"
    },
    {
      "bufferView": 2,
      "byteOffset": 10164,
      "componentType": 5126,
      "count": 121,
      "max": [
        0.15371835231781006,
        0.014904797077178955,
        0.005912713706493378
      ],
      "min": [
        -0.16107775270938873,
        -0.010729849338531494,
        -0.005892655812203884
      ],
      "type": "VEC3"
    },
    {
      "bufferView": 2,
      "byteOffset": 11616,
      "componentType": 5126,
      "count": 121,
      "max": [
        0.0,
        12.421862602233887,
        0.0
      ],
      "min": [
        0.0,
        -15.506155967712402,
        0.0
      ],
      "type": "VEC3"
    },
    {
      "bufferView": 2,
      "byteOffset": 13068,
      "componentType": 5126,
      "count": 121,
      "max": [
        0.19888482987880707,
        0.020671963691711426,
        0.007934335619211197
      ],
      "min": [
        -0.18620093166828156,
        -0.014823734760284424,
        -0.007848872803151608
      ],
      "type": "VEC3"
    },
    {
      "bufferView": 2,
      "byteOffset": 14520,
      "componentType": 5126,
      "count": 121,
      "max": [
        0.0,
        14.259495735168457,
        0.0
      ],
      "min": [
        0.0,
        -18.35977554321289,
        0.0
      ],
      "type": "VEC3"
    },
    {
      "bufferView": 2,
      "byteOffset": 15972,
      "componentType": 5126,
      "count": 121,
      "max": [
        0.2587185502052307,
        0.019670307636260986,
        0.009522706270217896
      ],
      "min": [
        -0.1845625340938568,
        -0.014644503593444824,
        -0.009796862490475178
      ],
      "type": "VEC3"
    },
    {
      "bufferView": 2,
      "byteOffset": 17424,
      "componentType": 5126,
      "count": 121,
      "max": [
        0.0,
        14.570491790771484,
        0.0
      ],
      "min": [
        0.0,
        -19.60384178161621,
        0.0
      ],
      "type": "VEC3"
    },
    {
      "bufferView": 2,
      "byteOffset": 18876,
      "componentType": 5126,
      "count": 121,
      "max": [
        0.32700783014297485,
        0.013689756393432617,
        0.010780468583106995
      ],
      "min": [
        -0.23072388768196106,
        -0.01029670238494873,
        -0.01174138206988573
      ],
      "type": "VEC3"
    },
    {
      "bufferView": 2,
      "byteOffset": 20328,
      "componentType": 5126,
      "count": 121,
      "max": [
        0.0,
        15.251039505004883,
        0.0
      ],
      "min": [
        0.0,
        -22.931861877441406,
        0.0
      ],
      "type": "VEC3"
    },
    {
      "bufferView": 2,
      "byteOffset": 21780,
      "componentType": 5126,
      "count": 121,
      "max": [
        0.3651287853717804,
        0.010415732860565186,
        0.012226276099681854
      ],
      "min": [
        -0.26995542645454407,
        -0.007462203502655029,
        -0.013676300644874573
      ],
      "type": "VEC3"
    },
    {
      "bufferView": 2,
      "byteOffset": 23232,
      "componentType": 5126,
      "count": 121,
      "max": [
        0.0,
        15.661571502685547,
        0.0
      ],
      "min": [
        0.0,
        -24.484743118286133,
        0.0
      ],
      "type": "VEC3"
    },
    {
      "bufferView": 2,
      "byteOffset": 24684,
      "componentType": 5126,
      "count": 121,
      "max": [
        0.36644965410232544,
        0.009390294551849365,
        0.013745948672294617
      ],
      "min": [
        -0.2831587791442871,
        -0.009782373905181885,
        -0.015601941384375095
      ],
      "type": "VEC3"
    },
    {
      "bufferView": 2,
      "byteOffset": 26136,
      "componentType": 5126,
      "count": 121,
      "max": [
        0.0,
        14.05778694152832,
        0.0
      ],
      "min": [
        0.0,
        -24.092029571533203,
        0.0
      ],
      "type": "VEC3"
    },
    {
      "bufferView": 2,
      "byteOffset": 27588,
      "componentType": 5126,
      "count": 121,
      "max": [
        0.33157598972320557,
        0.01345592737197876,
        0.015499211847782135
      ],
      "min": [
        -0.2669573724269867,
        -0.007197856903076172,
        -0.017515888437628746
      ],
      "type": "VEC3"
    },
    {
      "bufferView": 2,
      "byteOffset": 29040,
      "componentType": 5126,
      "count": 121,
      "max": [
        0.0,
        10.648012161254883,
        0.0
      ],
      "min": [
        0.0,
        -22.00851058959961,
        0.0
      ],
      "type": "VEC3"
    },
    {
      "bufferView": 2,
      "byteOffset": 30492,
      "componentType": 5126,
      "count": 121,
      "max": [
        0.2684693932533264,
        0.01966613531112671,
        0.017490439116954803
      ],
      "min": [
        -0.22504961490631104,
        -0.011028707027435303,
        -0.019396474584937096
      ],
      "type": "VEC3"
    },
    {
      "bufferView": 2,
      "byteOffset": 31944,
      "componentType": 5126,
      "count": 121,
      "max": [
        0.0,
        8.66963005065918,
        0.0
      ],
      "min": [
        0.0,
        -18.859088897705078,
        0.0
      ],
      "type": "VEC3"
    },
    {
      "bufferView": 2,
      "byteOffset": 33396,
      "componentType": 5126,
      "count": 121,
      "max": [
        0.19265815615653992,
        0.021845579147338867,
        0.019182361662387848
      ],
      "min": [
        -0.1668574959039688,
        -0.015271365642547607,
        -0.021311761811375618
      ],
      "type": "VEC3"
    },
    {
      "bufferView": 2,
      "byteOffset": 34848,
      "componentType": 5126,
      "count": 121,
      "max": [
        0.0,
        6.345157623291016,
        0.0
      ],
      "min": [
        0.0,
        -15.491640090942383,
        0.0
      ],
      "type": "VEC3"
    },
    {
      "bufferView": 2,
      "byteOffset": 36300,
      "componentType": 5126,
      "count": 121,
      "max": [
        0.130537748336792,
        0.018904149532318115,
        0.020474202930927277
      ],
      "min": [
        -0.13567879796028137,
        -0.014760196208953857,
        -0.023183558136224747
      ],
      "type": "VEC3"
    },
    {
      "bufferView": 2,
      "byteOffset": 37752,
      "componentType": 5126,
      "count": 121,
      "max": [
        0.0,
        7.451669216156006,
        0.0
      ],
      "min": [
        0.0,
        -13.067997932434082,
        0.0
      ],
      "type": "VEC3"
    },
    {
      "bufferView": 2,
      "byteOffset": 39204,
      "componentType": 5126,
      "count": 121,
      "max": [
        0.10019052773714066,
        0.01458960771560669,
        0.02186231128871441
      ],
      "min": [
        -0.10342094302177429,
        -0.00997835397720337,
        -0.025055166333913803
      ],
      "type": "VEC3"
    },
    {
      "bufferView": 2,
      "byteOffset": 40656,
      "componentType": 5126,
      "count": 121,
      "max": [
        0.0,
        11.829072952270508,
        0.0
      ],
      "min": [
        0.0,
        -11.349133491516113,
        0.0
      ],
      "type": "VEC3"
    },
    {
      "bufferView": 2,
      "byteOffset": 42108,
      "componentType": 5126,
      "count": 121,
      "max": [
        0.12989506125450134,
        0.01355445384979248,
        0.02362140640616417
      ],
      "min": [
        -0.10529273748397827,
        -0.01449507474899292,
        -0.026914000511169434
      ],
      "type": "VEC3"
    },
    {
      "bufferView": 2,
      "byteOffset": 43560,
      "componentType": 5126,
      "count": 121,
      "max": [
        0.0,
        15.644103050231934,
        0.0
      ],
      "min": [
        0.0,
        -11.544914245605469,
        0.0
      ],
      "type": "VEC3"
    },
    {
      "bufferView": 2,
      "byteOffset": 45012,
      "componentType": 5126,
      "count": 121,
      "max": [
        0.17714586853981018,
        0.016950130462646484,
        0.025399893522262573
      ],
      "min": [
        -0.13361702859401703,
        -0.018718838691711426,
        -0.02875882387161255
      ],
      "type": "VEC3"
    },
    {
      "bufferView": 2,
      "byteOffset": 46464,
      "componentType": 5126,
      "count": 121,
      "max": [
        0.0,
        18.08628273010254,
        0.0
      ],
      "min": [
        0.0,
        -13.410805702209473,
        0.0
      ],
      "type": "VEC3"
    },
    {
      "bufferView": 2,
      "byteOffset": 47916,
      "componentType": 5126,
      "count": 121,
      "max": [
        0.20809830725193024,
        0.02142125368118286,
        0.027189582586288452
      ],
      "min": [
        -0.19489838182926178,
        -0.015758752822875977,
        -0.03056708723306656
      ],
      "type": "VEC3"
    },
    {
      "bufferView": 2,
      "byteOffset": 49368,
      "componentType": 5126,
      "count": 121,
      "max": [
        0.0,
        19.005573272705078,
        0.0
      ],
      "min": [
        0.0,
        -17.205951690673828,
        0.0
      ],
      "type": "VEC3"
    },
    {
      "bufferView": 2,
      "byteOffset": 50820,
      "componentType": 5126,
      "count": 121,
      "max": [
        0.23220106959342957,
        0.02214902639389038,
        0.02899821475148201
      ],
      "min": [
        -0.24115246534347534,
        -0.00909566879272461,
        -0.032361626625061035
      ],
      "type": "VEC3"
    },
    {
      "bufferView": 2,
      "byteOffset": 52272,
      "componentType": 5126,
      "count": 121,
      "max": [
        0.0,
        19.98972511291504,
        0.0
      ],
      "min": [
        0.0,
        -19.318405151367188,
        0.0
      ],
      "type": "VEC3"
    },
    {
      "bufferView": 2,
      "byteOffset": 53724,
      "componentType": 5126,
      "count": 121,
      "max": [
        0.30407875776290894,
        0.01759195327758789,
        0.03081507235765457
      ],
      "min": [
        -0.26267480850219727,
        -0.012692928314208984,
        -0.0341816209256649
      ],
      "type": "VEC3"
    },
    {
      "bufferView": 2,
      "byteOffset": 55176,
      "componentType": 5126,
      "count": 121,
      "max": [
        0.0,
        21.327707290649414,
        0.0
      ],
      "min": [
        0.0,
        -21.235071182250977,
        0.0
      ],
      "type": "VEC3"
    },
    {
      "bufferView": 2,
      "byteOffset": 56628,
      "componentType": 5126,
      "count": 121,
      "max": [
        0.3551894426345825,
        0.011203944683074951,
        0.03264613449573517
      ],
      "min": [
        -0.2552559971809387,
        -0.011547505855560303,
        -0.035957153886556625
      ],
      "type": "VEC3"
    },
    {
      "bufferView": 2,
      "byteOffset": 58080,
      "componentType": 5126,
      "count": 121,
      "max": [
        0.0,
        22.792476654052734,
        0.0
      ],
      "min": [
        0.0,
        -22.410873413085938,
        0.0
      ],
      "type": "VEC3"
    },
    {
      "bufferView": 2,
      "byteOffset": 59532,
      "componentType": 5126,
      "count": 121,
      "max": [
        0.3740383982658386,
        0.008231401443481445,
        0.03448553383350372
      ],
      "min": [
        -0.2215757519006729,
        -0.009122908115386963,
        -0.03772426396608353
      ],
      "type": "VEC3"
    },
    {
      "bufferView": 2,
      "byteOffset": 60984,
      "componentType": 5126,
      "count": 121,
      "max": [
        0.0,
        22.372478485107422,
        0.0
      ],
      "min": [
        0.0,
        -22.02154541015625,
        0.0
      ],
      "type": "VEC3"
    },
    {
      "bufferView": 2,
      "byteOffset": 62436,
      "componentType": 5126,
      "count": 121,
      "max": [
        0.35645338892936707,
        0.011203944683074951,
        0.03631666302680969
      ],
      "min": [
        -0.24172994494438171,
        -0.017630457878112793,
        -0.03945093974471092
      ],
      "type": "VEC3"
    },
    {
      "bufferView": 2,
      "byteOffset": 63888,
      "componentType": 5126,
      "count": 121,
      "max": [
        0.0,
        20.203601837158203,
        0.0
      ],
      "min": [
        0.0,
        -20.072872161865234,
        0.0
      ],
      "type": "VEC3"
    },
    {
      "bufferView": 2,
      "byteOffset": 65340,
      "componentType": 5126,
      "count": 121,
      "max": [
        0.30478429794311523,
        0.017916321754455566,
        0.038164522498846054
      ],
      "min": [
        -0.26103347539901733,
        -0.021513402462005615,
        -0.04117707535624504
      ],
      "type": "VEC3"
    },
    {
      "bufferView": 2,
      "byteOffset": 66792,
      "componentType": 5126,
      "count": 121,
      "max": [
        0.0,
        16.760028839111328,
        0.0
      ],
      "min": [
        0.0,
        -18.453157424926758,
        0.0
      ],
      "type": "VEC3"
    },
    {
      "bufferView": 2,
      "byteOffset": 68244,
      "componentType": 5126,
      "count": 121,
      "max": [
        0.2280859351158142,
        0.022863388061523438,
        0.04000358283519745
      ],
      "min": [
        -0.24422702193260193,
        -0.018310606479644775,
        -0.04284823685884476
      ],
      "type": "VEC3"
    },
    {
      "bufferView": 2,
      "byteOffset": 69696,
      "componentType": 5126,
      "count": 121,
      "max": [
        0.0,
        12.732873916625977,
        0.0
      ],
      "min": [
        0.0,
        -16.464786529541016,
        0.0
      ],
      "type": "VEC3"
    },
    {
      "bufferView": 2,
      "byteOffset": 71148,
      "componentType": 5126,
      "count": 121,
      "max": [
        0.1555413007736206,
        0.02137356996536255,
        0.04184279963374138
      ],
      "min": [
        -0.19549453258514404,
        -0.011966824531555176,
        -0.04452782869338989
      ],
      "type": "VEC3"
    },
    {
      "bufferView": 2,
      "byteOffset": 72600,
      "componentType": 5126,
      "count": 121,
      "max": [
        0.0,
        8.868963241577148,
        0.0
      ],
      "min": [
        0.0,
        -13.638498306274414,
        0.0
      ],
      "type": "VEC3"
    },
    {
      "bufferView": 2,
      "byteOffset": 74052,
      "componentType": 5126,
      "count": 121,
      "max": [
        0.10706061124801636,
        0.014175236225128174,
        0.04370356723666191
      ],
      "min": [
        -0.12420719116926193,
        -0.010109364986419678,
        -0.04621332511305809
      ],
      "type": "VEC3"
    },
    {
      "bufferView": 2,
      "byteOffset": 75504,
      "componentType": 5126,
      "count": 121,
      "max": [
        0.0,
        5.8227338790893555,
        0.0
      ],
      "min": [
        0.0,
        -10.636453628540039,
        0.0
      ],
      "type": "VEC3"
    },
    {
      "bufferView": 2,
      "byteOffset": 76956,
      "componentType": 5126,
      "count": 121,
      "max": [
        0.07156345993280411,
        0.010211825370788574,
        0.04558128863573074
      ],
      "min": [
        -0.06236828491091728,
        -0.008951842784881592,
        -0.0478537492454052
      ],
      "type": "VEC3"
    },
    {
      "bufferView": 0,
      "componentType": 5125,
      "count": 600,
      "type": "SCALAR"
    },
    {
      "bufferView": 3,
      "componentType": 5126,
      "count": 27,
      "max": [
        1.7000000476837158
      ],
      "min": [
        0.8333333134651184
      ],
      "type": "SCALAR"
    },
    {
      "bufferView": 3,
      "byteOffset": 108,
      "componentType": 5126,
      "count": 702,
      "max": [
        1.0
      ],
      "min": [
        0.0
      ],
      "type": "SCALAR"
    }
  ],
  "animations": [
    {
      "channels": [
        {
          "sampler": 0,
          "target": {
            "node": 6,
            "path": "weights"
          }
        }
      ],
      "name": "Flag Moving",
      "samplers": [
        {
          "input": 56,
          "interpolation": "LINEAR",
          "output": 57
        }
      ]
    }
  ],
  "asset": {
    "extras": {
      "author": "Designed By Jonathan (https://sketchfab.com/designedbyjonathan)",
      "license": "CC-BY-4.0 (http://creativecommons.org/licenses/by/4.0/)",
      "source": "https://sketchfab.com/3d-models/moving-american-flag-dc3dc2dc6faa4e348bdda0f94809ab35",
      "title": "Moving American Flag"
    },
    "generator": "Sketchfab-12.64.0",
    "version": "2.0"
  },
  "bufferViews": [
    {
      "buffer": 0,
      "byteLength": 2400,
      "name": "floatBufferViews",
      "target": 34963
    },
    {
      "buffer": 0,
      "byteLength": 968,
      "byteOffset": 2400,
      "byteStride": 8,
      "name": "floatBufferViews",
      "target": 34962
    },
    {
      "buffer": 0,
      "byteLength": 78408,
      "byteOffset": 3368,
      "byteStride": 12,
      "name": "floatBufferViews",
      "target": 34962
    },
    {
      "buffer": 0,
      "byteLength": 2916,
      "byteOffset": 81776,
      "name": "floatBufferViews"
    }
  ],
  "buffers": [
    {
      "byteLength": 84692,
      "uri": "scene.bin"
    }
  ],
  "images": [
    {
      "uri": "textures/PlaneShape_baseColor.png"
    }
  ],
  "materials": [
    {
      "doubleSided": true,
      "name": "PlaneShape",
      "pbrMetallicRoughness": {
        "baseColorTexture": {
          "index": 0
        },
        "metallicFactor": 0.0,
        "roughnessFactor": 0.6
      }
    }
  ],
  "meshes": [
    {
      "name": "PlaneShape",
      "primitives": [
        {
          "attributes": {
            "NORMAL": 1,
            "POSITION": 0,
            "TEXCOORD_0": 2
          },
          "indices": 55,
          "material": 0,
          "mode": 4,
          "targets": [
            {
              "NORMAL": 4,
              "POSITION": 3
            },
            {
              "NORMAL": 6,
              "POSITION": 5
            },
            {
              "NORMAL": 8,
              "POSITION": 7
            },
            {
              "NORMAL": 10,
              "POSITION": 9
            },
            {
              "NORMAL": 12,
              "POSITION": 11
            },
            {
              "NORMAL": 14,
              "POSITION": 13
            },
            {
              "NORMAL": 16,
              "POSITION": 15
            },
            {
              "NORMAL": 18,
              "POSITION": 17
            },
            {
              "NORMAL": 20,
              "POSITION": 19
            },
            {
              "NORMAL": 22,
              "POSITION": 21
            },
            {
              "NORMAL": 24,
              "POSITION": 23
            },
            {
              "NORMAL": 26,
              "POSITION": 25
            },
            {
              "NORMAL": 28,
              "POSITION": 27
            },
            {
              "NORMAL": 30,
              "POSITION": 29
            },
            {
              "NORMAL": 32,
              "POSITION": 31
            },
            {
              "NORMAL": 34,
              "POSITION": 33
            },
            {
              "NORMAL": 36,
              "POSITION": 35
            },
            {
              "NORMAL": 38,
              "POSITION": 37
            },
            {
              "NORMAL": 40,
              "POSITION": 39
            },
            {
              "NORMAL": 42,
              "POSITION": 41
            },
            {
              "NORMAL": 44,
              "POSITION": 43
            },
            {
              "NORMAL": 46,
              "POSITION": 45
            },
            {
              "NORMAL": 48,
              "POSITION": 47
            },
            {
              "NORMAL": 50,
              "POSITION": 49
            },
            {
              "NORMAL": 52,
              "POSITION": 51
            },
            {
              "NORMAL": 54,
              "POSITION": 53
            }
          ]
        }
      ],
      "weights": [
        0.0,
        0.0,
        0.0,
        0.0,
        0.0,
        0.0,
        0.0,
        0.0,
        0.0,
        0.0,
        0.0,
        0.0,
        0.0,
        0.0,
        0.0,
        0.0,
        0.0,
        0.0,
        0.0,
        0.0,
        0.0,
        0.0,
        0.0,
        0.0,
        0.0,
        0.0
      ]
    }
  ],
  "nodes": [
    {
      "children": [
        1
      ],
      "matrix": [
        1.0,
        0.0,
        0.0,
        0.0,
        0.0,
        2.220446049250313e-16,
        -1.0,
        0.0,
        0.0,
        1.0,
        2.220446049250313e-16,
        0.0,
        0.0,
        0.0,
        0.0,
        1.0
      ],
      "name": "Sketchfab_model"
    },
    {
      "children": [
        2
      ],
      "name": "9711226b87494cb6a93e3a8071c1ae4d.abc.cleaner.materialmerger.gles"
    },
    {
      "children": [
        3
      ],
      "matrix": [
        1.0,
        0.0,
        0.0,
        0.0,
        0.0,
        2.220446049250313e-16,
        1.0,
        0.0,
        0.0,
        -1.0,
        2.220446049250313e-16,
        0.0,
        0.0,
        0.0,
        0.0,
        1.0
      ],
      "name": "Object_2"
    },
    {
      "children": [
        4
      ],
      "name": "Object_3",
      "rotation": [
        0.7071068286895752,
        0.0,
        0.0,
        0.7071068286895752
      ],
      "translation": [
        0.0,
        206.15042114257813,
        -214.5447998046875
      ]
    },
    {
      "children": [
        5
      ],
      "name": "Object_4"
    },
    {
      "children": [
        6
      ],
      "name": "MorphMainGroup"
    },
    {
      "mesh": 0,
      "name": "PlaneShape"
    }
  ],
  "samplers": [
    {
      "magFilter": 9729,
      "minFilter": 9987,
      "wrapS": 10497,
      "wrapT": 10497
    }
  ],
  "scene": 0,
  "scenes": [
    {
      "name": "Sketchfab_Scene",
      "nodes": [
        0
      ]
    }
  ],
  "textures": [
    {
      "sampler": 0,
      "source": 0
    }
  ]
}
