{
  "accessors": [
    {
      "bufferView": 2,
      "componentType": 5126,
      "count": 6846,
      "max": [
        15.846099853515625,
        5.459799766540527,
        18.860700607299805
      ],
      "min": [
        -15.01550006866455,
        -6.486000061035156,
        -0.6854000091552734
      ],
      "type": "VEC3"
    },
    {
      "bufferView": 2,
      "byteOffset": 82152,
      "componentType": 5126,
      "count": 6846,
      "max": [
        0.9997598528862,
        0.9998192191123962,
        0.9999964237213135
      ],
      "min": [
        -0.999921441078186,
        -0.9999691247940063,
        -0.9999884366989136
      ],
      "type": "VEC3"
    },
    {
      "bufferView": 3,
      "componentType": 5126,
      "count": 6846,
      "max": [
        0.9999319911003113,
        0.999998927116394,
        0.999951183795929,
        1.0
      ],
      "min": [
        -0.9999163746833801,
        -1.0,
        -0.9999066591262817,
        -1.0
      ],
      "type": "VEC4"
    },
    {
      "bufferView": 1,
      "componentType": 5126,
      "count": 6846,
      "max": [
        0.9994999766349792,
        0.9797999858856201
      ],
      "min": [
        0.0026000000070780516,
        0.0005000000237487257
      ],
      "type": "VEC2"
    },
    {
      "bufferView": 0,
      "componentType": 5125,
      "count": 29325,
      "type": "SCALAR"
    }
  ],
  "asset": {
    "extras": {
      "author": "Diox..Andrey (https://sketchfab.com/Diox..Andrey)",
      "license": "CC-BY-4.0 (http://creativecommons.org/licenses/by/4.0/)",
      "source": "https://sketchfab.com/3d-models/sneakers-low-poly-downloadable-bfab9043f4fa44ee92a4c9f175690cfd",
      "title": "Sneakers Low Poly (downloadable)"
    },
    "generator": "Sketchfab-12.65.0",
    "version": "2.0"
  },
  "bufferViews": [
    {
      "buffer": 0,
      "byteLength": 117300,
      "name": "floatBufferViews",
      "target": 34963
    },
    {
      "buffer": 0,
      "byteLength": 54768,
      "byteOffset": 117300,
      "byteStride": 8,
      "name": "floatBufferViews",
      "target": 34962
    },
    {
      "buffer": 0,
      "byteLength": 164304,
      "byteOffset": 172068,
      "byteStride": 12,
      "name": "floatBufferViews",
      "target": 34962
    },
    {
      "buffer": 0,
      "byteLength": 109536,
      "byteOffset": 336372,
      "byteStride": 16,
      "name": "floatBufferViews",
      "target": 34962
    }
  ],
  "buffers": [
    {
      "byteLength": 445908,
      "uri": "scene.bin"
    }
  ],
  "images": [
    {
      "uri": "textures/default_normal.png"
    }
  ],
  "materials": [
    {
      "doubleSided": true,
      "name": "default",
      "normalTexture": {
        "index": 0
      },
      "pbrMetallicRoughness": {
        "baseColorFactor": [
          0.18648417912592063,
          0.20718383834819148,
          1.0,
          1.0
        ],
        "metallicFactor": 0.0,
        "roughnessFactor": 0.6
      }
    }
  ],
  "meshes": [
    {
      "name": "Object_0",
      "primitives": [
        {
          "attributes": {
            "NORMAL": 1,
            "POSITION": 0,
            "TANGENT": 2,
            "TEXCOORD_0": 3
          },
          "indices": 4,
          "material": 0,
          "mode": 4
        }
      ]
    }
  ],
  "nodes": [
    {
      "children": [
        1
      ],
      "matrix": [
        1.0,
        0.0,
        0.0,
        0.0,
        0.0,
        2.220446049250313e-16,
        -1.0,
        0.0,
        0.0,
        1.0,
        2.220446049250313e-16,
        0.0,
        0.0,
        0.0,
        0.0,
        1.0
      ],
      "name": "Sketchfab_model"
    },
    {
      "children": [
        2
      ],
      "name": "Sneakers.obj.cleaner.materialmerger.gles"
    },
    {
      "mesh": 0,
      "name": "Object_2"
    }
  ],
  "samplers": [
    {
      "magFilter": 9729,
      "minFilter": 9987,
      "wrapS": 10497,
      "wrapT": 10497
    }
  ],
  "scene": 0,
  "scenes": [
    {
      "name": "Sketchfab_Scene",
      "nodes": [
        0
      ]
    }
  ],
  "textures": [
    {
      "sampler": 0,
      "source": 0
    }
  ]
}
