{
  "accessors": [
    {
      "bufferView": 2,
      "componentType": 5126,
      "count": 9425,
      "max": [
        72.36405181884766,
        136.55294799804688,
        30.420021057128906
      ],
      "min": [
        -41.83852767944336,
        -66.54544067382813,
        -77.57777404785156
      ],
      "type": "VEC3"
    },
    {
      "bufferView": 2,
      "byteOffset": 113100,
      "componentType": 5126,
      "count": 9425,
      "max": [
        0.999939501285553,
        0.9996123909950256,
        0.9995056986808777
      ],
      "min": [
        -0.9998332262039185,
        -0.9999817609786987,
        -0.9989071488380432
      ],
      "type": "VEC3"
    },
    {
      "bufferView": 3,
      "componentType": 5126,
      "count": 9425,
      "max": [
        0.9999978542327881,
        0.9999999403953552,
        0.9999969601631165,
        1.0
      ],
      "min": [
        -1.0,
        -0.9999999403953552,
        -0.9999997019767761,
        -1.0
      ],
      "type": "VEC4"
    },
    {
      "bufferView": 1,
      "componentType": 5126,
      "count": 9425,
      "max": [
        0.9980400204658508,
        0.8852499723434448
      ],
      "min": [
        0.0019499999471008778,
        0.0019499999471008778
      ],
      "type": "VEC2"
    },
    {
      "bufferView": 0,
      "componentType": 5125,
      "count": 51987,
      "type": "SCALAR"
    }
  ],
  "asset": {
    "extras": {
      "author": "vicente betoret ferrero (https://sketchfab.com/deathcow)",
      "license": "CC-BY-4.0 (http://creativecommons.org/licenses/by/4.0/)",
      "source": "https://sketchfab.com/3d-models/king-kong-scene-low-poly-acee25e2df9a4136b88fd5d182b3ef8b",
      "title": "King Kong scene low poly"
    },
    "generator": "Sketchfab-12.68.0",
    "version": "2.0"
  },
  "bufferViews": [
    {
      "buffer": 0,
      "byteLength": 207948,
      "name": "floatBufferViews",
      "target": 34963
    },
    {
      "buffer": 0,
      "byteLength": 75400,
      "byteOffset": 207948,
      "byteStride": 8,
      "name": "floatBufferViews",
      "target": 34962
    },
    {
      "buffer": 0,
      "byteLength": 226200,
      "byteOffset": 283348,
      "byteStride": 12,
      "name": "floatBufferViews",
      "target": 34962
    },
    {
      "buffer": 0,
      "byteLength": 150800,
      "byteOffset": 509548,
      "byteStride": 16,
      "name": "floatBufferViews",
      "target": 34962
    }
  ],
  "buffers": [
    {
      "byteLength": 660348,
      "uri": "scene.bin"
    }
  ],
  "images": [
    {
      "uri": "textures/defaultMat_baseColor.png"
    },
    {
      "uri": "textures/defaultMat_normal.png"
    }
  ],
  "materials": [
    {
      "doubleSided": true,
      "name": "defaultMat",
      "normalTexture": {
        "index": 1
      },
      "pbrMetallicRoughness": {
        "baseColorTexture": {
          "index": 0
        },
        "metallicFactor": 0.0,
        "roughnessFactor": 0.8486386452543314
      }
    }
  ],
  "meshes": [
    {
      "name": "Group14763_defaultMat_0",
      "primitives": [
        {
          "attributes": {
            "NORMAL": 1,
            "POSITION": 0,
            "TANGENT": 2,
            "TEXCOORD_0": 3
          },
          "indices": 4,
          "material": 0,
          "mode": 4
        }
      ]
    }
  ],
  "nodes": [
    {
      "children": [
        1
      ],
      "matrix": [
        1.0,
        0.0,
        0.0,
        0.0,
        0.0,
        2.220446049250313e-16,
        -1.0,
        0.0,
        0.0,
        1.0,
        2.220446049250313e-16,
        0.0,
        0.0,
        0.0,
        0.0,
        1.0
      ],
      "name": "Sketchfab_model"
    },
    {
      "children": [
        2
      ],
      "matrix": [
        1.0,
        0.0,
        0.0,
        0.0,
        0.0,
        0.0,
        1.0,
        0.0,
        0.0,
        -1.0,
        0.0,
        0.0,
        0.0,
        0.0,
        0.0,
        1.0
      ],
      "name": "635c85fd17b34406a95ebdfadcfa6c5d.fbx"
    },
    {
      "children": [
        3
      ],
      "name": "RootNode"
    },
    {
      "children": [
        4
      ],
      "matrix": [
        0.9925461493344377,
        -0.12179593842354784,
        0.0042297547100680274,
        0.0,
        -0.12005559295505593,
        -0.9712194522128812,
        0.2057168691272569,
        0.0,
        -0.02094745907240131,
        -0.20469129201516695,
        -0.9786024110595537,
        0.0,
        15.262762069702148,
        103.27481842041016,
        29.244529724121094,
        1.0
      ],
      "name": "Group14763"
    },
    {
      "children": [
        5
      ],
      "matrix": [
        1.0,
        0.0,
        -0.0,
        0.0,
        0.0,
        1.0,
        0.0,
        0.0,
        0.0,
        0.0,
        1.0,
        0.0,
        -15.262762069702148,
        -35.003753662109375,
        23.578876495361328,
        1.0
      ],
      "name": "Object_4"
    },
    {
      "mesh": 0,
      "name": "Group14763_defaultMat_0"
    }
  ],
  "samplers": [
    {
      "magFilter": 9729,
      "minFilter": 9987,
      "wrapS": 10497,
      "wrapT": 10497
    }
  ],
  "scene": 0,
  "scenes": [
    {
      "name": "Sketchfab_Scene",
      "nodes": [
        0
      ]
    }
  ],
  "textures": [
    {
      "sampler": 0,
      "source": 0
    },
    {
      "sampler": 0,
      "source": 1
    }
  ]
}
